<svg width="32" height="32" viewBox="0 0 32 32" fill="none" xmlns="http://www.w3.org/2000/svg">
<g clip-path="url(#clip0_2_474)">
<mask id="mask0_2_474" style="mask-type:luminance" maskUnits="userSpaceOnUse" x="0" y="0" width="32" height="32">
<path d="M32 0H0V32H32V0Z" fill="white"/>
</mask>
<g mask="url(#mask0_2_474)">
<path d="M23.8165 28.5761C20.1762 39.4752 10.4661 42.8367 5.33212 29.3028C4.62386 27.4422 6.46974 26.7523 7.76148 25.9303C8.64588 25.3688 9.11194 24.8844 9.05689 24.3817C8.80001 22.0183 7.70276 15.4349 7.70276 15.4349L7.59267 15.222C7.59267 15.222 7.61836 15.1633 7.51194 15.2661C7.40185 15.3761 7.14864 16.5211 6.15414 16.5211C5.25506 16.5211 4.34864 16.1211 3.91561 13.3541C3.75047 12.3523 3.83854 9.72477 4.95414 9.24771C5.41286 9.05321 5.83487 8.98349 6.24588 9.21835C6.66056 9.45321 5.76882 8.41101 10.356 4.59449C13.3358 2.10642 18.044 1.74312 19.945 2.16514C21.8459 2.58715 23.7431 3.51559 24.5835 5.48624C25.6037 7.87156 23.633 9.68073 24.0697 15.1193C23.989 17.0862 24.0991 21.4018 18.6899 22.8477C17.6624 23.1229 17.9817 24.6239 19.5229 24.9908C21.9817 25.7615 23.8165 27.644 23.8165 28.5835" fill="white"/>
<path fill-rule="evenodd" clip-rule="evenodd" d="M23.8165 11.6404L23.8202 11.589C23.9706 10.2532 24.1211 8.9578 24.8147 7.79449C25.0532 7.95596 25.0239 8.16147 24.9505 8.35229C24.2202 10.2312 24.2899 12.1835 24.356 14.1358L24.3706 14.6495C24.4477 17.0862 23.8385 19.3028 22.2165 21.1633C21.6514 21.8092 20.9028 22.2569 20.1431 22.6422C19.3578 23.0459 19.1927 23.3798 19.4385 24.2422L19.4679 24.3376C19.5193 24.4807 19.5706 24.6275 19.4312 24.7706C19.2661 24.9394 19.0826 24.8917 18.8881 24.8367L18.8661 24.833C17.0466 24.3236 15.3405 23.473 13.8385 22.3266C13.6184 22.1651 13.4422 21.9486 13.2697 21.7358L13.2587 21.7211C13.167 21.611 13.1486 21.4349 13.2771 21.3394C13.3982 21.2477 13.4899 21.3211 13.5963 21.4055L13.633 21.4385C14.4343 22.0887 15.4069 22.4928 16.433 22.6018C16.9248 22.6532 17.4092 22.6349 17.9009 22.6165C18.1725 22.6055 18.444 22.5945 18.7193 22.5982C19.0936 22.5982 19.4055 22.4257 19.6991 22.2605L19.8018 22.2018C20.822 21.633 21.7945 20.9982 22.4514 19.9743C23.0422 19.0569 23.4018 18.0587 23.611 17.0055C23.8752 15.6807 23.8532 14.3376 23.8312 12.9761C23.8202 12.5358 23.8128 12.0881 23.8128 11.6404H23.8165ZM5.34312 8.87339C6.14679 8.81101 6.59083 9.2844 6.96881 9.83853C7.4168 10.5156 7.69845 11.2889 7.79083 12.0954C7.80918 12.2312 7.82753 12.3743 7.74679 12.5101C7.58166 12.5321 7.56698 12.4 7.56331 12.3046C7.54496 11.545 7.20734 10.8844 6.86973 10.2459C6.62753 9.78716 6.27523 9.34312 5.71744 9.23303C5.08624 9.10459 4.50643 9.67339 4.22019 10.4147C3.68808 11.7945 3.77982 13.1523 4.27156 14.4881C4.48441 15.0716 4.7523 15.6661 5.29175 16.0734C5.83487 16.4881 6.49175 16.4147 6.89175 15.8642L6.96514 15.7725C7.03854 15.6771 7.11193 15.5853 7.14863 15.4789C7.22569 15.2661 7.34679 15.0679 7.56331 15.0972C7.81285 15.1339 7.85689 15.4018 7.88257 15.611C8.11023 17.5334 8.3794 19.4507 8.68991 21.3615L8.90643 22.7853C9.00184 23.4128 9.11193 24.3156 9.03854 24.6972C9.0338 24.724 9.03013 24.7509 9.02753 24.778C9.01285 24.8807 9.00551 24.9615 8.8734 24.9798C8.69358 25.0092 8.61652 24.9064 8.59083 24.745C8.50643 24.1211 8.48074 23.8789 8.44404 22.9248C8.41101 22 8.23854 21.0899 8.06239 20.1761L7.8789 19.1853C7.68808 18.055 7.50092 16.9101 7.48257 15.6257L7.40918 15.7358C7.13028 16.1505 6.90643 16.4881 6.5101 16.6165C6.21589 16.7292 5.89348 16.7455 5.5894 16.6631C5.28533 16.5806 5.01532 16.4037 4.81835 16.1578C4.30124 15.5737 3.93799 14.8699 3.76147 14.1101C3.45322 12.8624 3.39817 11.6477 3.7945 10.4183C3.98533 9.82752 4.66423 8.77798 5.34312 8.87706V8.87339ZM6.61285 13.5523C6.77432 13.6697 6.92111 13.7725 7.05322 13.3541C7.01285 11.8055 6.51377 10.8147 5.73945 10.7743C6.15046 11.3101 6.54679 11.8312 6.58349 12.5541C6.43079 12.4761 6.29682 12.366 6.19083 12.2312C6.11744 12.1505 6.04404 12.0697 5.9523 12.011L5.84221 11.9229C5.66606 11.7908 5.48624 11.6514 5.189 11.7578C5.32845 11.9706 5.51927 12.1248 5.71377 12.2716C5.93395 12.444 6.15413 12.6128 6.28624 12.8771C5.89725 13.1596 5.72845 13.5266 5.93028 13.9743C6.10643 14.3596 6.36698 14.6789 6.88074 14.7009C6.85872 14.4697 6.70826 14.3009 6.5578 14.1358C6.37432 13.9376 6.20184 13.7468 6.28257 13.4532C6.40001 13.3982 6.5101 13.4789 6.61285 13.5523Z" fill="black"/>
<path d="M38.7303 48.4037L-9.11194 48.2752C-9.11194 48.2752 -7.39818 37.1156 -2.82203 31.945C-0.770653 29.6294 0.935768 27.3431 5.51925 25.6991C6.30458 25.4165 7.46788 22.4697 8.09173 22.1615C8.68256 21.8679 8.29357 24.0771 8.84035 24.5248C9.95533 25.4551 11.1324 26.3085 12.3633 27.0789C14.5248 28.444 15.5193 31.2954 15.5193 31.2954C15.5193 31.2954 16.4881 28.5468 17.2954 27.1963C17.8642 26.2422 19.7651 23.4385 19.7651 23.4385C19.7651 23.4385 23.2404 24.5248 24.5284 25.4826C25.3101 26.0624 24.8514 25.934 28.3963 27.9596C31.4752 29.7174 34.4954 34.5321 36.1027 38.5285C37.8128 42.778 38.7303 48.4 38.7303 48.4V48.4037Z" fill="white"/>
<path fill-rule="evenodd" clip-rule="evenodd" d="M38.4954 48.4037C38.2495 47.4129 38.0367 46.422 37.8239 45.4275C37.7321 44.9872 37.6404 44.5468 37.5413 44.1138C37.2404 42.756 36.844 41.4349 36.4073 40.1211C35.9866 38.8431 35.4714 37.598 34.8661 36.3963C34.2647 35.1693 33.578 33.986 32.811 32.8551C31.7101 31.2661 30.5138 29.7541 28.9284 28.6202C27.7761 27.7982 26.4991 27.1817 25.2257 26.5688C24.7743 26.3486 24.3119 26.4514 23.8605 26.5505L23.7138 26.5872C23.3505 26.6606 22.9945 26.7413 22.6349 26.822C22.2039 26.9202 21.7721 27.0144 21.3395 27.1046C21.1523 27.1413 21.0826 27.2514 21.0275 27.4055L20.8073 28.0477C20.6569 28.4954 20.5028 28.9431 20.3633 29.3945C20.2679 29.6954 20.1064 29.8275 19.7872 29.8202C19.5156 29.8165 19.244 29.8202 18.9725 29.8275C18.6789 29.8312 18.389 29.8385 18.0991 29.8312C17.5853 29.8202 17.3321 30.0037 17.3945 30.6202C17.4642 31.2807 17.4606 31.945 17.4606 32.6129C17.4606 33.0055 17.4606 33.3982 17.4716 33.7945C17.5083 34.8037 17.5083 35.8239 17.4899 36.8294C17.4532 38.7119 17.4532 40.5945 17.4532 42.4807C17.4569 44.433 17.4606 46.389 17.4165 48.3596C17.2754 48.4009 17.1259 48.4035 16.9835 48.367C16.9358 46.3817 16.9138 44.4294 16.9248 42.4771C16.9321 41.3101 16.9248 40.1395 16.9211 38.9688C16.9064 36.6239 16.8954 34.2789 16.9872 31.934C16.9945 31.8055 16.9505 31.6881 16.8073 31.6844C16.7237 31.778 16.6393 31.871 16.5541 31.9633C16.0844 32.4771 15.622 32.9835 15.4018 33.7211C15.0972 33.3688 14.9725 32.9578 14.8477 32.5651C14.7119 32.1284 14.5798 31.7101 14.2239 31.3945C14.1505 31.6073 14.1505 31.8018 14.1505 32V33.211L14.1578 35.7431L14.1541 38.8404C14.1505 41.0789 14.1468 43.3138 14.1541 45.5486C14.1578 45.8202 14.1541 46.0918 14.1431 46.3596C14.1284 47.0422 14.1101 47.7248 14.2165 48.4H13.6954C13.6473 47.6364 13.624 46.8715 13.6257 46.1064V31.4642C13.6257 30.5835 13.3431 30.334 12.5028 30.1064C11.1083 29.7395 9.70642 29.3395 8.63486 28.2826C8.23853 27.8936 7.81285 28.0881 7.46055 28.2459L7.41652 28.2679C7.10092 28.4147 6.77431 28.5211 6.44771 28.6275C6.00734 28.7743 5.56697 28.9211 5.15963 29.1523C5.07523 29.1963 4.99817 29.2477 4.91743 29.2991C4.76462 29.4022 4.60243 29.4906 4.43303 29.5633L4.3523 29.6C4.2422 29.6514 4.13578 29.6991 4.01101 29.5817C3.87156 29.4569 3.87523 29.3248 3.93762 29.1596L4.14679 28.5321C4.33028 27.9743 4.51376 27.4202 4.75597 26.8807L4.79266 26.8073C4.84404 26.7229 4.89174 26.6385 4.84404 26.5248C4.69725 26.4257 4.56147 26.4991 4.44037 26.5651L4.37431 26.6018L4.29358 26.6385L4.22019 26.6752C2.66422 27.4569 1.10826 28.2385 -0.176145 29.4642C-1.09198 30.3235 -1.93864 31.2536 -2.70825 32.2459C-4.18693 34.2101 -5.39298 36.3655 -6.29358 38.6532C-7.15963 40.811 -7.90825 43.0202 -8.28624 45.3321C-8.35963 45.7578 -8.42569 46.1835 -8.49541 46.6129L-8.78532 48.3633C-8.98715 48.4 -9.18165 48.4 -9.41284 48.4C-9.24403 47.189 -9.04954 45.978 -8.81835 44.7707C-8.73394 44.334 -8.62385 43.9046 -8.51009 43.4752C-8.44403 43.211 -8.37431 42.9505 -8.31559 42.6862C-8.10747 41.8599 -7.85886 41.0442 -7.57064 40.2422L-7.53394 40.1431C-6.77128 37.8387 -5.73645 35.6336 -4.45137 33.5743C-3.83136 32.5869 -3.13179 31.6516 -2.35963 30.778C-0.965136 29.189 0.576148 27.7688 2.51009 26.8771C3.55963 26.3927 4.53578 25.8129 5.50459 25.1963C5.77982 25.0202 5.90826 24.767 6.04037 24.5138C6.09175 24.422 6.13945 24.3266 6.19817 24.2349C6.73762 23.3725 7.29908 22.5321 8.14679 21.9303L8.20551 21.8862C8.31193 21.8018 8.41468 21.7248 8.56147 21.8129C8.69358 21.8862 8.68624 22 8.68257 22.1211V22.2239C8.70459 22.833 8.75596 23.4385 8.80734 24.044C8.82569 24.2385 8.90642 24.411 9.10092 24.4991C9.92294 24.8771 10.6239 25.4275 11.3248 25.9817C11.7468 26.3119 12.1688 26.6422 12.6165 26.9358C13.6961 27.6212 14.5908 28.5613 15.222 29.6734C15.2954 29.8055 15.3505 29.945 15.4128 30.1064L15.5083 30.3486C15.8495 28.9725 16.5835 27.8459 17.3174 26.7266L17.7468 26.0661C17.8202 25.9486 17.8789 25.8239 17.9376 25.6991C18.0183 25.5303 18.0991 25.3615 18.2239 25.2073C18.3141 25.0974 18.3705 24.9636 18.3861 24.8223C18.4018 24.6809 18.376 24.538 18.3119 24.411C18.2312 24.2385 18.1872 24.0587 18.2569 23.8716C18.5688 23.7762 18.7339 23.956 18.9101 24.1431L18.9468 24.1798C19.2771 23.967 19.2404 23.6918 19.0679 23.3982C19.0092 23.2954 18.9578 23.1963 19.0459 23.0973C19.1303 23.0055 19.244 23.0165 19.3541 23.0496C20.7156 23.4422 22.0697 23.8569 23.3248 24.5395C23.4972 24.6349 23.6771 24.7229 23.8569 24.8073C24.345 25.0422 24.833 25.2771 25.189 25.6697C25.7541 26.2936 26.4771 26.6312 27.2 26.9688C27.633 27.1743 28.0624 27.3725 28.4624 27.6367C29.3596 28.1966 30.1896 28.8578 30.9358 29.6073C31.7798 30.4991 32.5688 31.4422 33.255 32.4551C33.8569 33.3358 34.4294 34.2385 34.9284 35.189C35.6082 36.4834 36.1968 37.8237 36.6899 39.2C37.1486 40.4734 37.5413 41.7651 37.8899 43.0716C38.1395 44.0184 38.3009 44.9798 38.4587 45.945C38.5945 46.7523 38.7266 47.5596 38.9138 48.367C38.7963 48.4037 38.6679 48.4037 38.4954 48.4037ZM14.5578 29.5119C13.7104 28.4966 12.7174 27.6124 11.611 26.8881C11.2797 26.6694 10.9623 26.4304 10.6606 26.1725C10.2202 25.8129 9.77982 25.4496 9.25872 25.211C8.6422 24.9321 8.31193 24.5358 8.28991 23.8716V23.7835C8.28624 23.6404 8.28257 23.4973 8.26422 23.3578C8.23487 23.0789 7.90826 22.9321 7.73578 23.1413C7.67706 23.2147 7.60734 23.2734 7.54129 23.3358C7.44459 23.4154 7.35938 23.508 7.28807 23.611C6.44404 24.9541 5.60734 26.2973 4.99817 27.7688C4.91743 27.967 4.86239 28.2275 5.03119 28.389C5.16697 28.5211 5.33945 28.4514 5.50826 28.3817C5.53742 28.369 5.56678 28.3567 5.59633 28.345L6.31193 28.0734C6.79266 27.8826 7.27707 27.6954 7.77248 27.545C8.29725 27.3872 8.69725 27.4789 9.06789 27.8936C9.46038 28.3113 9.94032 28.6371 10.4734 28.8477C11.0569 29.1046 11.655 29.2991 12.2532 29.4973C12.7743 29.6697 13.2954 29.8422 13.8055 30.0514C14.433 30.3083 15.0165 30.6422 15.0092 31.4642C15.0092 31.5927 15.0385 31.7211 15.2514 31.7028C15.3578 31.4092 15.3578 31.1156 15.211 30.822L15.0202 30.433C14.8734 30.1395 14.7266 29.8385 14.5578 29.5119ZM21.211 24.1945L21.5413 24.3119L23.1743 25.0642C23.4704 25.1986 23.7664 25.3332 24.0624 25.4679C24.1798 25.5229 24.3083 25.578 24.3083 25.7285C24.3083 25.8899 24.1798 25.9119 24.0624 25.934L23.9963 25.9486C23.8186 25.9913 23.6413 26.0354 23.4642 26.0807C23.0092 26.1945 22.5541 26.3083 22.0881 26.378C21.1119 26.5248 20.5835 26.9174 20.3156 27.8569C20.2826 27.9743 20.2422 28.0918 20.1982 28.2055C20.1395 28.3707 20.0844 28.5358 20.0514 28.6973C19.9596 29.1376 19.6771 29.1817 19.3358 29.211L18.6862 29.2844C18.3303 29.3211 17.9743 29.3651 17.6147 29.3872C17.3211 29.4055 17.1523 29.556 17.0422 29.7908C16.9578 29.967 16.8624 30.1358 16.7706 30.3046C16.5945 30.6239 16.4147 30.9431 16.3083 31.2954C16.2569 31.4569 16.1835 31.6991 15.8789 31.6918C15.9523 30.811 16.1725 29.956 16.5211 29.1486C16.7596 28.5982 17.0936 28.1101 17.4275 27.6257C17.7064 27.2147 17.9853 26.8037 18.2092 26.3633C18.6202 25.5376 19.222 24.8807 19.8312 24.2239L20.022 24.0147C20.1505 23.8716 20.2385 23.8312 20.411 23.8973C20.6789 24.0073 20.9468 24.1028 21.2183 24.1982L21.211 24.1945Z" fill="black"/>
<path fill-rule="evenodd" clip-rule="evenodd" d="M24 34.5468C23.7871 33.2477 23.8165 32.0147 24.4147 30.7633C25.4826 31.967 25.4569 33.3688 25.4348 34.7376L25.4275 35.3138C25.611 35.3835 25.7101 35.3174 25.7982 35.2587L25.8862 35.2073C26.3449 35.0055 26.4844 35.0899 26.5615 35.6C26.7009 36.5248 26.7082 37.4606 26.7156 38.3927L26.7193 38.7963C26.7193 39.0495 26.5835 39.233 26.4073 39.3505C25.9358 39.7002 25.5093 40.107 25.1376 40.5615C24.8954 40.8294 24.6532 41.1009 24.389 41.3468C24.0257 41.6771 23.4092 41.7872 23.0092 41.4826L22.6238 41.1927C22.044 40.7596 21.4679 40.3303 20.9174 39.8569C20.6516 39.6518 20.4485 39.3764 20.3311 39.0618C20.2137 38.7473 20.1867 38.4062 20.2532 38.0771C20.3156 37.6954 20.3486 37.3064 20.3816 36.9138C20.411 36.6055 20.4367 36.2973 20.4771 35.989C20.5798 35.2294 20.7229 35.1413 21.4128 35.4422C21.4752 35.4679 21.5376 35.4862 21.6 35.5009C21.7651 35.545 21.9376 35.5927 22.0881 35.7945L22.1615 35.244C22.2202 34.8037 22.2752 34.3963 22.2715 33.9817V33.9596C22.2715 33.9009 22.2715 33.8275 22.2422 33.8055C21.5816 33.3578 21.7027 32.7706 21.9963 32.2018L22.033 32.1284C22.2494 31.7711 22.3975 31.3766 22.4697 30.9651C22.4697 30.9211 22.5101 30.8807 22.5431 30.8404L22.5871 30.789L22.6422 30.8L22.6972 30.8147C22.7523 31.1963 22.9541 31.5009 23.1523 31.8092C23.3211 32.0697 23.4899 32.3303 23.5743 32.6349C23.6697 32.9982 23.611 33.3028 23.3504 33.5339C23.0936 33.7651 23.0569 34.033 23.0936 34.3413L23.1193 34.5615C23.1413 34.7339 23.1633 34.9101 23.1706 35.0862C23.2037 35.7358 23.3027 35.8165 24.011 35.6881C24.0807 35.3211 24.0587 34.9541 24 34.5468ZM25.0752 39.7578C25.1119 39.7211 25.1559 39.6881 25.1963 39.655C25.2833 39.577 25.3752 39.5047 25.4715 39.4385C25.9853 39.1083 26.2348 38.6826 26.1468 38.033C26.0991 37.6771 26.1101 37.3174 26.1101 36.9541C26.1174 36.767 26.1174 36.5798 26.1137 36.3927V36.3046C26.1137 36.1358 26.1137 35.9633 25.967 35.8275C25.7982 35.8642 25.6404 35.9376 25.4862 36.011C25.266 36.1101 25.0459 36.2092 24.8073 36.2092C24.5358 36.2092 24.2642 36.2165 23.9926 36.2275C23.1266 36.2569 22.2605 36.2899 21.4275 35.9413C21.1413 35.8202 21.0275 35.9119 21.0128 36.2128C20.9761 36.9468 20.8844 37.6734 20.7523 38.3927L20.7486 38.4073C20.7046 38.6385 20.6569 38.9101 20.8807 39.0972C21.6745 39.7477 22.4721 40.3936 23.2734 41.0349C23.5596 41.2697 23.8532 41.2184 24.0477 40.9395C24.2035 40.7318 24.3739 40.5356 24.5578 40.3523C24.7303 40.1688 24.9101 39.978 25.0715 39.7578H25.0752ZM24.3303 32.8697C24.3743 32.8917 24.422 32.9174 24.4697 32.8991L24.9101 32.844C24.6165 33.145 24.4367 33.1486 24.1358 32.8734C24.2055 32.8037 24.2679 32.8367 24.3303 32.8697Z" fill="black"/>
<path d="M24.6422 1.82753C25.1927 3.28808 25.6991 4.389 25.6037 5.92661C25.567 6.49175 25.156 7.38349 25.0165 7.92661C24.822 8.67523 24.4147 9.36147 24.367 10.1541C24.3596 10.2532 24.2862 10.3193 24.1174 10.3523C23.8312 9.97799 23.7945 9.50092 23.7798 9.06055C23.7358 7.68441 23.6697 6.3156 23.3615 4.97248C23.2734 4.5945 23.1303 4.23487 22.9798 3.77248C22.844 5.02019 22.844 5.01285 21.7101 5.0312C19.6697 5.06789 17.6367 5.18899 15.6184 5.48257C15.0422 5.56698 14.9945 5.53028 14.5982 4.79267C14.1945 5.06422 14.2055 5.54863 14.0037 5.9156C13.3908 7.04955 12.6018 8.01101 11.4349 8.62753C11.0312 8.84037 10.2092 8.81101 9.27707 8.56514C8.92845 9.67707 8.08441 10.6422 8.38166 11.9486C8.43271 12.1627 8.43616 12.3854 8.39178 12.601C8.34739 12.8166 8.25625 13.0198 8.12478 13.1963C7.98533 13.3945 7.8312 13.4275 7.64037 13.3688C7.44588 13.3101 7.53762 13.1523 7.54129 13.0165C7.55964 11.8202 7.26973 10.6862 6.59083 9.70276C5.96698 8.79266 4.49542 9.02019 4.02569 10.0477C3.94129 10.2385 3.90092 10.4661 3.60368 10.6495C3.54863 9.97799 3.53762 9.36514 3.60734 8.75964C3.74783 7.3495 4.05581 5.96113 4.52478 4.62386C5.21463 2.67916 6.42418 0.960668 8.02202 -0.344949C9.72238 -1.71586 11.7914 -2.55114 13.967 -2.74495C14.4073 -2.79266 14.844 -2.87706 15.2844 -2.9211C16.8303 -3.07039 18.39 -2.87229 19.8495 -2.34128C21.8239 -1.64403 23.5266 -0.572473 24.4184 1.42753C24.4734 1.55597 24.5541 1.6734 24.6422 1.82753ZM7.18166 14.7927C7.32845 14.7523 7.4312 14.7596 7.47524 14.8991C7.79083 15.7872 7.80551 16.7119 7.76147 17.633C7.74312 17.9853 7.15964 18.411 6.67156 18.4771C6.20551 18.5358 5.77248 18.4734 5.49725 18.0367C5.35046 17.8055 5.46056 17.5596 5.54496 17.2844C5.02019 17.2991 4.56514 17.5046 4.09542 17.2844C3.47157 16.9945 3.40918 16.7193 3.90459 16.2569L4.03303 16.0991C3.81285 15.8202 3.45322 15.7798 3.22569 15.5303C2.97248 15.2624 2.93579 15.0092 3.14129 14.7413C3.41285 14.3927 3.84588 14.3266 4.13945 14.5578C4.25322 14.6385 4.34863 14.7486 4.41468 14.8734C4.55276 15.1497 4.76639 15.3812 5.03077 15.541C5.29514 15.7008 5.59941 15.7824 5.90826 15.7762C6.57615 15.7945 6.9468 15.3982 7.18166 14.7927Z" fill="black"/>
<path d="M16.0734 19.1119C15.9853 19.7615 16.6642 20.3046 17.2624 20.0661C17.1046 19.4862 16.4991 19.4275 16.0734 19.1119Z" fill="white"/>
<path fill-rule="evenodd" clip-rule="evenodd" d="M15.6807 19.7358C16.1358 20.5945 17.0018 20.833 17.945 20.3339C18.3303 20.0991 18.4917 19.7248 18.6312 19.3761C18.6911 19.2339 18.7172 19.0797 18.7077 18.9257C18.6981 18.7716 18.6531 18.6219 18.5762 18.4881C18.0624 17.5413 17.4312 17.5156 16.6716 17.6587C15.8459 17.8165 15.2844 18.9945 15.6807 19.7358ZM17.2624 20.0661C16.6642 20.3046 15.9853 19.7615 16.0734 19.1119C16.2092 19.211 16.3596 19.2844 16.5101 19.3578C16.8367 19.5156 17.156 19.6697 17.2624 20.0661Z" fill="black"/>
<path d="M15.4862 17.3211C15.7872 17.4569 15.7688 17.6624 15.6404 17.8716C15.545 18.0367 15.4018 18.1358 15.211 18.0184C15.0349 17.9083 15.0752 17.7578 15.1743 17.6147C15.255 17.5046 15.2844 17.3468 15.4862 17.3211Z" fill="black"/>
<path d="M18.7303 15.6551C18.5468 15.6624 18.411 15.6404 18.2899 15.5486C18.1872 15.4752 18.1725 15.3725 18.1945 15.2587C18.2129 15.1376 18.3119 15.1193 18.4073 15.1266C18.9248 15.1523 19.4349 15.1083 19.9156 14.8918C20.033 14.8367 20.1358 14.8844 20.1982 14.9872C20.2606 15.1009 20.2716 15.2184 20.1688 15.3321C19.9853 15.545 19.7578 15.6624 19.4716 15.6551H18.734H18.7303Z" fill="black"/>
<path d="M21.7835 13.0275C21.6294 12.6789 21.4202 12.4697 21.0569 12.4514C20.8367 12.4404 20.8 12.2642 20.7303 12.0918C20.8037 12.0367 20.8587 11.956 20.9248 11.9523C21.6991 11.8899 22.4807 11.8863 23.2551 11.9486C23.4752 11.9633 23.5963 12.2422 23.3725 12.3303C23.0055 12.4771 22.9138 12.8147 22.6936 13.0569C22.3927 13.3872 22.1358 13.3908 21.7835 13.0275ZM14.7743 11.9413C15.222 11.967 15.622 11.978 16.022 12.0147C16.1541 12.0257 16.3156 12.0807 16.3156 12.2606C16.3156 12.4661 16.1468 12.4514 16.011 12.4477C15.7798 12.4477 15.6551 12.5468 15.5523 12.7633C15.4275 13.0349 15.2991 13.3248 14.8918 13.3064C14.5064 13.2881 14.3376 13.0422 14.2275 12.7486C14.1468 12.5395 14.044 12.4404 13.8239 12.4477C13.6991 12.4514 13.5633 12.4404 13.5486 12.2679C13.534 12.0844 13.6587 12.0477 13.8055 12.0037C14.1212 11.9196 14.4504 11.8984 14.7743 11.9413Z" fill="black"/>
<path d="M17.2183 9.69542C17.0128 10.3119 16.9761 10.2606 16.3743 10.1211C15.4128 9.90093 14.4404 9.41652 13.4275 9.96331C13.3541 10.0037 13.244 10 13.1486 9.99267C13.0165 9.98533 12.8477 10.0404 12.778 9.87157C12.7009 9.68808 12.833 9.56698 12.9725 9.49359C13.6954 9.12661 14.3486 8.60184 15.2624 8.69726C15.7321 8.74496 16.2165 8.5945 16.7046 8.60918C17.3945 8.63487 17.5266 8.81836 17.2917 9.48625L17.2183 9.69909V9.69542ZM23.3651 8.9101C23.7174 9.1523 23.8239 9.52661 24.0367 9.82753C24.0766 9.87746 24.0965 9.94048 24.0924 10.0043C24.0883 10.0681 24.0606 10.128 24.0147 10.1725C23.9266 10.2716 23.8165 10.2752 23.7174 10.2165C23.0165 9.81285 22.2899 9.98166 21.589 10.1725C21.2147 10.2716 21.0532 10.1431 20.9578 9.83487C20.8954 9.6257 20.8514 9.41285 20.8257 9.19634C20.778 8.83671 21.0789 8.75964 21.3028 8.74863C21.9816 8.7156 22.6752 8.58349 23.3651 8.9101Z" fill="black"/>
</g>
</g>
<defs>
<clipPath id="clip0_2_474">
<path d="M0 16C0 7.16344 7.16344 0 16 0C24.8366 0 32 7.16344 32 16C32 24.8366 24.8366 32 16 32C7.16344 32 0 24.8366 0 16Z" fill="white"/>
</clipPath>
</defs>
</svg>
