<svg width="14" height="20" viewBox="0 0 14 20" fill="none" xmlns="http://www.w3.org/2000/svg">
<path d="M6.875 0C4.80469 0 3.125 1.67969 3.125 3.75V10C3.125 12.0703 4.80469 13.75 6.875 13.75C8.94531 13.75 10.625 12.0703 10.625 10V3.75C10.625 1.67969 8.94531 0 6.875 0ZM1.875 8.4375C1.875 7.91797 1.45703 7.5 0.9375 7.5C0.417969 7.5 0 7.91797 0 8.4375V10C0 13.4805 2.58594 16.3555 5.9375 16.8125V18.125H4.0625C3.54297 18.125 3.125 18.543 3.125 19.0625C3.125 19.582 3.54297 20 4.0625 20H6.875H9.6875C10.207 20 10.625 19.582 10.625 19.0625C10.625 18.543 10.207 18.125 9.6875 18.125H7.8125V16.8125C11.1641 16.3555 13.75 13.4805 13.75 10V8.4375C13.75 7.91797 13.332 7.5 12.8125 7.5C12.293 7.5 11.875 7.91797 11.875 8.4375V10C11.875 12.7617 9.63672 15 6.875 15C4.11328 15 1.875 12.7617 1.875 10V8.4375Z" fill="black"/>
</svg>
