<svg width="14" height="15" viewBox="0 0 14 15" fill="none" xmlns="http://www.w3.org/2000/svg">
<path d="M13.6204 0.153232C13.8966 0.344641 14.0415 0.675505 13.9896 1.00637L12.2395 12.3815C12.1985 12.6468 12.0372 12.8792 11.802 13.0105C11.5669 13.1417 11.2852 13.1581 11.0364 13.0542L7.76603 11.6952L5.89295 13.7214C5.64959 13.9866 5.26677 14.0741 4.93044 13.9429C4.59411 13.8116 4.37535 13.4862 4.37535 13.1253V10.8393C4.37535 10.73 4.41637 10.626 4.4902 10.5467L9.07308 5.5455C9.23167 5.37323 9.22621 5.108 9.06214 4.94393C8.89808 4.77987 8.63284 4.76893 8.46057 4.92479L2.89877 9.86588L0.484277 8.65727C0.194428 8.51234 0.00848806 8.2225 0.000284804 7.89983C-0.00791845 7.57717 0.161615 7.27639 0.440526 7.11506L12.6907 0.11495C12.9833 -0.0518494 13.3442 -0.0354429 13.6204 0.153232Z" fill="white"/>
</svg>
